<svg width="772" height="772" viewBox="0 0 772 772" fill="none" xmlns="http://www.w3.org/2000/svg">
<rect width="772" height="772" rx="186" fill="url(#paint0_linear_25_9)"/>
<path fill-rule="evenodd" clip-rule="evenodd" d="M176.481 236.612C256.011 147.975 353.666 103.897 415.047 123.664C470.179 134.771 535.467 174.172 592.088 235.568L593.216 236.796C631.555 278.652 660.037 324.32 676.973 367.511C704.153 433.639 704.644 494.576 672.43 528.05L671.804 528.691C661.056 539.6 647.57 546.684 632.1 550.199C632.133 552.825 632.1 555.421 632.001 557.984C630.937 585.358 622.112 610.467 602.85 627.226C567.189 658.252 517.972 657.55 469.527 637.236C442.577 625.936 414.774 608.22 387.593 584.9C352.854 614.396 318.782 635.181 286.827 645.826C240.541 661.245 196.812 655.701 164.63 621.911C156.843 613.735 151.148 604.104 147.258 593.524C141.721 580.837 139.012 566.576 138.588 551.7C125.782 548.151 114.445 541.959 105.041 532.952L104.399 532.331C95.8096 523.907 89.3858 513.592 85.0283 501.776C57.8118 439.327 93.3316 329.913 175.368 237.856L176.481 236.612ZM386.615 422.685C382.786 427.317 378.84 431.915 374.781 436.47L373.669 437.714C309.755 508.946 234.136 551.399 175.045 555.066C175.255 564.457 176.65 572.551 179.022 579.39C181.183 584.072 183.872 588.044 186.996 591.324C207.555 612.909 236.56 618.929 274.377 606.332C300.025 597.788 328.81 580.836 359.432 555.5C359.429 555.497 359.426 555.494 359.423 555.491L359.74 555.245C368.544 547.948 377.5 539.958 386.575 531.276L405.568 550.094C431.063 572.278 456.631 588.603 480.589 598.649C523.158 616.499 557.155 613.439 578.929 594.495C588.312 586.332 594.611 572.546 595.486 552.293C536.903 547.242 463.017 506.136 399.9 437.696L398.771 436.468C394.602 431.916 390.549 427.319 386.615 422.685ZM321.922 322.099C260.41 366.059 216.22 424.059 193.174 477.154C187.778 489.586 183.609 501.595 180.633 512.959C189.817 511.604 200.034 509.061 211.313 505.062C253.881 489.97 303.219 456.435 347.537 406.704C352.364 401.289 357.001 395.82 361.452 390.322C345.937 368.456 333.032 346.202 322.947 324.341L321.922 322.099ZM297.694 188.523C266.194 206.678 233.207 233.291 202.612 267.622C158.294 317.353 129.717 371.248 118.226 416.817C110.252 448.439 111.26 471.76 116.835 487.682C119.335 493.15 122.431 497.551 125.879 500.932C130.025 504.998 135.539 508.435 142.472 510.788C146.024 493.396 151.897 475.313 159.784 457.143C186.314 396.02 236.91 330.909 306.61 282.895C295.333 247.998 292.045 215.371 297.694 188.523ZM451.435 318.163C440.906 342.738 426.846 367.919 409.537 392.614C413.757 397.613 418.136 402.581 422.675 407.503C467.788 456.421 517.655 489.058 560.452 503.38C571.602 507.112 581.705 509.458 590.792 510.667C588.461 501.038 585.256 490.883 581.135 480.323C559.503 427.936 516.673 368.885 452.962 319.345L451.435 318.163ZM470.045 186.797C476.976 212.984 475.01 245.284 465.044 280.167C537.489 334.644 586.892 401.605 611.638 462.727C612.083 463.827 612.52 464.927 612.95 466.025C613.188 466.602 613.424 467.179 613.657 467.755C619.281 481.645 623.688 495.383 626.784 508.726C634.925 506.242 641.248 502.354 645.838 497.696C659.113 484.223 666.751 455.345 654.079 408.359C651.75 399.721 648.794 390.793 645.225 381.659C629.803 344.222 604.26 303.657 569.312 265.761C537.711 231.495 503.778 205.218 471.576 187.628L470.045 186.797ZM408.211 163.722C377.238 157.931 356.923 164.635 346.15 175.569C332.874 189.042 325.236 217.92 337.908 264.906C340.242 273.559 343.203 282.505 346.78 291.656C355.828 313.607 368.354 336.632 384.215 359.563C407.948 324.316 423.999 288.932 431.923 257.508C439.896 225.889 438.889 202.571 433.316 186.649C430.815 181.179 427.719 176.776 424.27 173.393C420.231 169.432 414.894 166.068 408.211 163.722Z" fill="white"/>
<defs>
<linearGradient id="paint0_linear_25_9" x1="55.5206" y1="772" x2="850.654" y2="-1.59784e-05" gradientUnits="userSpaceOnUse">
<stop stop-color="#00A8FF"/>
<stop offset="1" stop-color="#FF9F43"/>
</linearGradient>
</defs>
</svg>
